<svg version="1.1" id="Layer_1" xmlns="http://www.w3.org/2000/svg" xmlns:xlink="http://www.w3.org/1999/xlink" x="0px" y="0px"
	 width="100%" viewBox="0 0 512 512" enable-background="new 0 0 512 512" xml:space="preserve">
<path fill="#000000" opacity="1.000000" stroke="none" 
	d="
M1.000000,67.000000 
	C1.000000,60.645603 1.000000,54.291203 1.326782,47.166882 
	C4.222604,47.264584 6.782761,48.852116 9.362116,48.883945 
	C27.190893,49.103966 45.025040,48.874386 62.854408,49.069054 
	C68.943802,49.135540 71.838280,45.961662 71.828148,41.005699 
	C71.816978,35.549866 68.467682,32.848930 62.890289,32.931541 
	C48.894806,33.138832 34.889805,32.793373 20.897554,33.090370 
	C14.254519,33.231373 7.631879,34.333363 1.000000,35.000000 
	C1.000000,28.645601 1.000000,22.291203 1.327079,15.167381 
	C3.723463,15.264848 5.785218,16.862989 7.863254,16.884447 
	C26.693314,17.078894 45.526592,17.057816 64.357933,16.940279 
	C67.630089,16.919851 69.709198,15.283501 71.269516,11.849717 
	C73.374580,7.217105 69.420158,4.639549 69.000000,1.000000 
	C216.907730,1.000000 364.815460,1.000000 513.000000,1.000000 
	C513.000000,86.687363 513.000000,172.375015 512.617188,258.767944 
	C511.828278,258.628571 511.211090,257.822235 511.049652,256.933136 
	C509.857117,250.366440 509.112396,243.697723 507.560120,237.220871 
	C502.352112,215.490463 494.210754,194.874985 482.905273,175.579956 
	C470.284058,154.039398 454.453735,135.216812 435.521667,118.847145 
	C417.592712,103.344772 397.752014,91.146492 375.978424,81.998276 
	C347.924011,70.211159 318.752716,64.059509 288.220551,65.000053 
	C283.203979,65.154579 281.033081,67.225090 281.019897,72.266403 
	C280.969818,91.422546 281.014771,110.578918 280.988770,129.735153 
	C280.982574,134.302246 283.083588,136.668320 287.715729,137.035461 
	C294.567474,137.578537 301.402985,138.329056 308.243835,139.007187 
	C322.937134,140.463776 336.827332,144.787872 350.282684,150.714264 
	C369.946014,159.374924 386.732544,171.932739 401.245758,187.718857 
	C413.198700,200.720123 422.216583,215.522858 428.991638,231.738739 
	C436.507446,249.727554 440.506470,268.444916 440.093292,288.473938 
	C440.462799,301.138824 439.102478,313.122803 436.020691,324.948456 
	C428.603363,353.410889 414.764160,377.952759 393.307281,398.388123 
	C380.714691,410.381287 366.676392,419.837097 350.985443,426.957947 
	C333.502319,434.892242 315.230591,439.751129 295.889221,440.041046 
	C293.644257,440.074677 291.407684,440.667389 288.947571,440.684753 
	C287.602844,440.578796 286.441925,441.083405 285.358521,440.951477 
	C278.121246,440.070312 270.923615,438.516693 263.669098,438.204803 
	C252.442383,437.722107 242.553467,433.537781 232.361252,429.407104 
	C219.387222,424.149017 207.417099,417.434784 196.533554,408.801514 
	C178.256531,394.303497 163.357376,376.845947 152.615524,356.089325 
	C142.093109,335.756744 136.886032,314.042694 136.986206,291.094360 
	C137.013977,284.735504 133.670761,281.048737 127.714317,281.025757 
	C109.558327,280.955658 91.401749,280.961151 73.245705,281.025208 
	C67.805847,281.044403 65.184570,284.116058 64.970284,289.679535 
	C64.314674,306.700439 66.237106,323.515808 70.163315,339.977264 
	C79.332237,378.419952 97.203285,412.455505 124.110977,441.481873 
	C146.176178,465.284485 172.216614,483.585358 202.270706,496.053619 
	C219.887222,503.362091 238.031540,508.693542 257.003204,511.072113 
	C257.737823,511.164215 258.337463,512.332947 259.000000,513.000000 
	C173.054398,513.000000 87.108795,513.000000 1.000000,513.000000 
	C1.000000,368.645813 1.000000,224.291565 1.325821,79.165558 
	C4.220372,79.262299 6.778586,80.844551 9.359549,80.882576 
	C25.188398,81.115738 41.022652,80.958969 56.854305,81.058784 
	C58.533123,81.069366 60.722469,81.376747 61.801495,82.436127 
	C70.707237,91.179688 79.406708,100.133362 88.018066,109.331223 
	C84.044746,114.137466 79.895805,118.400841 76.456017,123.175148 
	C61.933079,143.332474 50.522507,165.144791 43.013466,188.863174 
	C35.953377,211.163483 32.144966,233.992157 32.989407,257.478363 
	C33.181015,262.807434 35.176807,264.976929 40.491386,264.983124 
	C70.152908,265.017761 99.814522,264.980804 129.476028,265.021240 
	C133.699554,265.027008 136.508499,263.414520 136.975113,259.010925 
	C137.750824,251.690414 137.776550,244.239319 139.162186,237.044266 
	C143.086929,216.664505 151.086517,198.140915 164.439636,181.892441 
	C178.303757,165.022186 195.202988,152.633453 215.561417,145.074951 
	C227.520065,140.635040 239.882462,137.884995 252.820389,137.918274 
	C263.238892,137.945084 265.000000,135.805054 265.000000,125.413742 
	C265.000031,97.418556 265.006287,69.423370 264.995270,41.428188 
	C264.992706,34.899315 263.046448,32.774593 256.417572,33.057568 
	C245.891891,33.506889 235.259537,33.554359 224.896851,35.192398 
	C212.123459,37.211498 199.168045,39.525192 187.042572,43.828468 
	C172.136765,49.118473 157.591202,55.822598 143.650955,63.328804 
	C127.812721,71.856995 113.508751,82.849777 100.592804,95.789078 
	C91.317604,86.780952 82.275581,77.930000 73.456215,68.862473 
	C70.696602,66.025208 67.765778,64.884697 63.834026,64.932259 
	C49.516758,65.105415 35.191944,64.796822 20.878632,65.091064 
	C14.242145,65.227501 7.625590,66.333527 1.000000,67.000000 
M334.047791,237.197113 
	C337.556702,230.448929 341.429932,223.861725 344.497742,216.918625 
	C350.663025,202.965103 355.418671,188.547287 351.918884,173.030533 
	C349.594025,162.723099 346.583038,157.507172 333.804840,162.974014 
	C328.765472,165.129990 323.681427,167.431091 318.384888,168.673676 
	C311.658264,170.251785 304.769043,172.498642 297.739777,169.951416 
	C295.494476,169.137772 293.461304,167.589493 291.173798,167.070206 
	C284.867889,165.638672 281.821411,169.814819 279.156006,175.441681 
	C276.148376,168.007217 271.445129,163.045288 263.805359,166.217926 
	C255.523956,169.657013 249.000076,166.924744 242.373672,162.773331 
	C236.372589,159.013702 230.934021,160.114014 228.359253,166.424042 
	C226.618607,170.689819 225.348633,175.403366 225.114670,179.980347 
	C224.409103,193.783676 228.534805,206.606323 234.424316,218.908005 
	C237.484589,225.300110 240.726883,231.605057 243.281158,238.242859 
	C242.454712,239.055786 241.707687,239.974258 240.789490,240.665298 
	C231.630539,247.558594 224.068390,255.960632 218.100739,265.674133 
	C210.398224,278.211365 205.935989,291.801086 203.752914,306.508942 
	C201.297577,323.050964 199.808273,339.460815 202.021957,356.058960 
	C205.264343,380.370514 220.615112,394.621826 243.912445,398.738831 
	C256.144958,400.900574 268.863464,400.937195 281.355469,400.855865 
	C299.178680,400.739838 317.137390,402.850098 334.807343,398.955627 
	C346.106018,396.465393 356.631256,391.830078 364.279266,382.996338 
	C373.424896,372.432800 377.014648,359.564697 377.034149,345.612732 
	C377.052612,332.432434 377.242859,319.248108 373.983887,306.347107 
	C371.580109,296.831482 369.825226,287.026764 366.235138,277.963287 
	C359.708862,261.487244 348.105743,248.641113 334.047791,237.197113 
z"/>
<path fill="#F95958" opacity="1.000000" stroke="none" 
	d="
M440.158691,288.009430 
	C440.506470,268.444916 436.507446,249.727554 428.991638,231.738739 
	C422.216583,215.522858 413.198700,200.720123 401.245758,187.718857 
	C386.732544,171.932739 369.946014,159.374924 350.282684,150.714264 
	C336.827332,144.787872 322.937134,140.463776 308.243835,139.007187 
	C301.402985,138.329056 294.567474,137.578537 287.715729,137.035461 
	C283.083588,136.668320 280.982574,134.302246 280.988770,129.735153 
	C281.014771,110.578918 280.969818,91.422546 281.019897,72.266403 
	C281.033081,67.225090 283.203979,65.154579 288.220551,65.000053 
	C318.752716,64.059509 347.924011,70.211159 375.978424,81.998276 
	C397.752014,91.146492 417.592712,103.344772 435.521667,118.847145 
	C454.453735,135.216812 470.284058,154.039398 482.905273,175.579956 
	C494.210754,194.874985 502.352112,215.490463 507.560120,237.220871 
	C509.112396,243.697723 509.857117,250.366440 511.049652,256.933136 
	C511.211090,257.822235 511.828278,258.628571 512.617188,259.236603 
	C513.000000,268.687561 513.000000,278.375122 512.531372,288.531342 
	C490.189178,289.000366 468.315552,289.027618 446.442291,288.957855 
	C444.346771,288.951172 442.253174,288.339996 440.158691,288.009430 
z"/>
<path fill="#7188E9" opacity="1.000000" stroke="none" 
	d="
M259.468658,513.000000 
	C258.337463,512.332947 257.737823,511.164215 257.003204,511.072113 
	C238.031540,508.693542 219.887222,503.362091 202.270706,496.053619 
	C172.216614,483.585358 146.176178,465.284485 124.110977,441.481873 
	C97.203285,412.455505 79.332237,378.419952 70.163315,339.977264 
	C66.237106,323.515808 64.314674,306.700439 64.970284,289.679535 
	C65.184570,284.116058 67.805847,281.044403 73.245705,281.025208 
	C91.401749,280.961151 109.558327,280.955658 127.714317,281.025757 
	C133.670761,281.048737 137.013977,284.735504 136.986206,291.094360 
	C136.886032,314.042694 142.093109,335.756744 152.615524,356.089325 
	C163.357376,376.845947 178.256531,394.303497 196.533554,408.801514 
	C207.417099,417.434784 219.387222,424.149017 232.361252,429.407104 
	C242.553467,433.537781 252.442383,437.722107 263.669098,438.204803 
	C270.923615,438.516693 278.121246,440.070312 285.358521,440.951477 
	C286.441925,441.083405 287.602844,440.578796 288.882507,441.149048 
	C289.024719,465.619659 289.012360,489.309845 289.000000,513.000000 
	C279.312439,513.000000 269.624878,513.000000 259.468658,513.000000 
z"/>
<path fill="#FF884D" opacity="1.000000" stroke="none" 
	d="
M289.468658,513.000000 
	C289.012360,489.309845 289.024719,465.619659 289.102173,441.465210 
	C291.407684,440.667389 293.644257,440.074677 295.889221,440.041046 
	C315.230591,439.751129 333.502319,434.892242 350.985443,426.957947 
	C366.676392,419.837097 380.714691,410.381287 393.307281,398.388123 
	C414.764160,377.952759 428.603363,353.410889 436.020691,324.948456 
	C439.102478,313.122803 440.462799,301.138824 440.093292,288.473938 
	C442.253174,288.339996 444.346771,288.951172 446.442291,288.957855 
	C468.315552,289.027618 490.189178,289.000366 512.531372,289.000000 
	C513.000000,298.687561 513.000000,308.375122 512.649902,318.212830 
	C511.878693,319.038269 511.162292,319.679260 511.079407,320.393738 
	C508.651550,341.326233 502.718719,361.279297 494.119934,380.446930 
	C480.403503,411.022278 460.918060,437.253296 435.459045,459.190369 
	C417.289062,474.846771 397.169312,487.084869 375.163116,496.379730 
	C357.760925,503.729980 339.718262,508.734161 320.948059,511.082031 
	C320.229950,511.171844 319.646301,512.336304 319.000000,513.000000 
	C309.312439,513.000000 299.624878,513.000000 289.468658,513.000000 
z"/>
<path fill="#000000" opacity="1.000000" stroke="none" 
	d="
M319.468689,513.000000 
	C319.646301,512.336304 320.229950,511.171844 320.948059,511.082031 
	C339.718262,508.734161 357.760925,503.729980 375.163116,496.379730 
	C397.169312,487.084869 417.289062,474.846771 435.459045,459.190369 
	C460.918060,437.253296 480.403503,411.022278 494.119934,380.446930 
	C502.718719,361.279297 508.651550,341.326233 511.079407,320.393738 
	C511.162292,319.679260 511.878693,319.038269 512.649902,318.681519 
	C513.000000,383.593689 513.000000,448.187378 513.000000,513.000000 
	C448.645935,513.000000 384.291626,513.000000 319.468689,513.000000 
z"/>
<path fill="#42C1A0" opacity="1.000000" stroke="none" 
	d="
M1.000000,67.460632 
	C7.625590,66.333527 14.242145,65.227501 20.878632,65.091064 
	C35.191944,64.796822 49.516758,65.105415 63.834026,64.932259 
	C67.765778,64.884697 70.696602,66.025208 73.456215,68.862473 
	C82.275581,77.930000 91.317604,86.780952 100.649231,96.139420 
	C102.240952,98.107941 103.320206,99.788307 104.695290,101.175392 
	C114.282005,110.845863 123.959808,120.426056 133.544739,130.098297 
	C137.787979,134.380173 138.105530,139.424820 134.542419,142.813171 
	C131.119598,146.068115 126.286942,145.690628 122.181854,141.624161 
	C112.389809,131.924240 102.700447,122.120583 92.896835,112.432465 
	C91.531342,111.083038 89.754883,110.149467 88.168663,109.023392 
	C79.406708,100.133362 70.707237,91.179688 61.801495,82.436127 
	C60.722469,81.376747 58.533123,81.069366 56.854305,81.058784 
	C41.022652,80.958969 25.188398,81.115738 9.359549,80.882576 
	C6.778586,80.844551 4.220372,79.262299 1.325821,78.696899 
	C1.000000,75.307091 1.000000,71.614182 1.000000,67.460632 
z"/>
<path fill="#42C1A0" opacity="1.000000" stroke="none" 
	d="
M68.531342,1.000000 
	C69.420158,4.639549 73.374580,7.217105 71.269516,11.849717 
	C69.709198,15.283501 67.630089,16.919851 64.357933,16.940279 
	C45.526592,17.057816 26.693314,17.078894 7.863254,16.884447 
	C5.785218,16.862989 3.723463,15.264848 1.327079,14.698979 
	C1.000000,10.358374 1.000000,5.716748 1.000000,1.000000 
	C23.354177,1.000000 45.708431,1.000000 68.531342,1.000000 
z"/>
<path fill="#42C1A0" opacity="1.000000" stroke="none" 
	d="
M1.000000,35.460640 
	C7.631879,34.333363 14.254519,33.231373 20.897554,33.090370 
	C34.889805,32.793373 48.894806,33.138832 62.890289,32.931541 
	C68.467682,32.848930 71.816978,35.549866 71.828148,41.005699 
	C71.838280,45.961662 68.943802,49.135540 62.854408,49.069054 
	C45.025040,48.874386 27.190893,49.103966 9.362116,48.883945 
	C6.782761,48.852116 4.222604,47.264584 1.326782,46.698479 
	C1.000000,43.307091 1.000000,39.614182 1.000000,35.460640 
z"/>
<path fill="#5FDDB9" opacity="1.000000" stroke="none" 
	d="
M88.018066,109.331223 
	C89.754883,110.149467 91.531342,111.083038 92.896835,112.432465 
	C102.700447,122.120583 112.389809,131.924240 122.181854,141.624161 
	C126.286942,145.690628 131.119598,146.068115 134.542419,142.813171 
	C138.105530,139.424820 137.787979,134.380173 133.544739,130.098297 
	C123.959808,120.426056 114.282005,110.845863 104.695290,101.175392 
	C103.320206,99.788307 102.240952,98.107941 100.968369,96.212967 
	C113.508751,82.849777 127.812721,71.856995 143.650955,63.328804 
	C157.591202,55.822598 172.136765,49.118473 187.042572,43.828468 
	C199.168045,39.525192 212.123459,37.211498 224.896851,35.192398 
	C235.259537,33.554359 245.891891,33.506889 256.417572,33.057568 
	C263.046448,32.774593 264.992706,34.899315 264.995270,41.428188 
	C265.006287,69.423370 265.000031,97.418556 265.000000,125.413742 
	C265.000000,135.805054 263.238892,137.945084 252.820389,137.918274 
	C239.882462,137.884995 227.520065,140.635040 215.561417,145.074951 
	C195.202988,152.633453 178.303757,165.022186 164.439636,181.892441 
	C151.086517,198.140915 143.086929,216.664505 139.162186,237.044266 
	C137.776550,244.239319 137.750824,251.690414 136.975113,259.010925 
	C136.508499,263.414520 133.699554,265.027008 129.476028,265.021240 
	C99.814522,264.980804 70.152908,265.017761 40.491386,264.983124 
	C35.176807,264.976929 33.181015,262.807434 32.989407,257.478363 
	C32.144966,233.992157 35.953377,211.163483 43.013466,188.863174 
	C50.522507,165.144791 61.933079,143.332474 76.456017,123.175148 
	C79.895805,118.400841 84.044746,114.137466 88.018066,109.331223 
z"/>
<path fill="#FCD163" opacity="1.000000" stroke="none" 
	d="
M334.117279,237.921051 
	C348.105743,248.641113 359.708862,261.487244 366.235138,277.963287 
	C369.825226,287.026764 371.580109,296.831482 373.983887,306.347107 
	C377.242859,319.248108 377.052612,332.432434 377.034149,345.612732 
	C377.014648,359.564697 373.424896,372.432800 364.279266,382.996338 
	C356.631256,391.830078 346.106018,396.465393 334.807343,398.955627 
	C317.137390,402.850098 299.178680,400.739838 281.355469,400.855865 
	C268.863464,400.937195 256.144958,400.900574 243.912445,398.738831 
	C220.615112,394.621826 205.264343,380.370514 202.021957,356.058960 
	C199.808273,339.460815 201.297577,323.050964 203.752914,306.508942 
	C205.935989,291.801086 210.398224,278.211365 218.100739,265.674133 
	C224.068390,255.960632 231.630539,247.558594 240.789490,240.665298 
	C241.707687,239.974258 242.454712,239.055786 244.059784,238.102631 
	C251.871933,237.991302 258.905457,238.020203 265.809448,238.364807 
	C263.029022,243.674545 260.184479,248.577835 257.788208,253.691208 
	C255.855347,257.815704 257.432373,261.992523 261.127014,263.997833 
	C264.831360,266.008423 269.548584,265.096252 271.652954,261.371857 
	C275.980652,253.712570 279.955231,245.853745 284.522095,238.058472 
	C287.955109,238.051468 290.941162,238.063004 294.009644,238.417557 
	C297.788696,245.636307 301.481659,252.513977 305.183075,259.387115 
	C307.983734,264.587646 312.173798,266.326385 316.596039,264.136749 
	C321.115997,261.898743 322.173706,257.089996 319.319183,251.700745 
	C316.907562,247.147644 314.483215,242.601273 312.528870,238.037659 
	C320.034546,237.989273 327.075928,237.955170 334.117279,237.921051 
M319.976837,343.160492 
	C324.368958,331.434387 313.961060,316.956573 302.902618,314.711823 
	C297.724213,313.660675 296.292938,311.557129 296.959930,306.839722 
	C297.213867,305.043732 297.019958,303.183197 297.015991,301.352142 
	C297.009277,298.262573 298.659363,297.294373 301.142456,298.770447 
	C302.700958,299.696960 304.178436,301.319153 304.909485,302.974823 
	C307.231476,308.233704 311.118134,310.430786 315.964417,308.750793 
	C319.820557,307.414062 321.795197,302.649200 320.426300,297.864532 
	C317.704346,288.350800 310.513062,284.026764 301.529694,282.256409 
	C298.733490,281.705353 297.558350,280.724396 296.218964,278.189941 
	C295.028381,275.936981 292.016510,273.670441 289.557220,273.352264 
	C287.320312,273.062836 283.071747,274.950104 282.631195,276.639587 
	C281.275452,281.839081 277.286530,282.364166 273.466644,283.689819 
	C263.780579,287.051117 256.876831,295.908417 257.017517,304.719788 
	C257.170166,314.280792 264.990601,325.136108 274.670135,327.097351 
	C280.703033,328.319702 281.710175,331.171082 281.022614,336.194733 
	C280.866058,337.338715 281.168274,338.554993 280.952179,339.678925 
	C280.690460,341.040344 280.249847,343.368439 279.626068,343.457733 
	C278.177490,343.665070 276.340973,343.108368 275.099945,342.237061 
	C273.997040,341.462769 273.350891,339.910339 272.734619,338.593109 
	C270.352142,333.500580 266.520203,331.584442 261.908020,333.295258 
	C258.083282,334.713959 256.258148,339.442230 257.606293,344.265625 
	C260.307312,353.929504 267.971710,357.659241 276.672699,359.762329 
	C279.218872,360.377777 280.744507,360.884003 281.522461,363.624146 
	C282.536285,367.195038 285.501892,369.557495 289.047577,368.757812 
	C291.740479,368.150452 295.089691,366.123657 296.172913,363.805878 
	C297.522675,360.917816 299.227264,359.878815 301.873505,359.181610 
	C310.268616,356.969849 316.371887,352.012909 319.976837,343.160492 
z"/>
<path fill="#EFB745" opacity="1.000000" stroke="none" 
	d="
M334.082520,237.559082 
	C327.075928,237.955170 320.034546,237.989273 312.492676,238.004028 
	C311.992157,237.984680 311.921844,237.915298 312.004700,237.570358 
	C314.779358,231.684296 317.588501,226.196274 320.125305,220.585083 
	C322.116425,216.180923 320.592926,211.887161 316.683838,209.900375 
	C312.903900,207.979218 308.223877,208.978058 306.241608,212.812317 
	C301.967834,221.078873 298.096161,229.553329 294.026611,237.975540 
	C293.993317,238.008377 293.927185,238.074539 293.927185,238.074539 
	C290.941162,238.063004 287.955109,238.051468 284.489136,238.025330 
	C284.009186,238.010742 283.942749,237.944992 283.899902,237.593475 
	C280.129425,229.614182 276.467896,221.953156 272.650696,214.370483 
	C270.170105,209.443008 265.893677,207.767517 261.579041,209.769623 
	C257.157074,211.821548 255.888733,216.443832 258.358887,221.689453 
	C260.910156,227.107330 263.506409,232.504013 266.047485,237.945267 
	C266.011963,237.980560 265.938965,238.049118 265.938965,238.049118 
	C258.905457,238.020203 251.871933,237.991302 244.362686,237.955902 
	C240.726883,231.605057 237.484589,225.300110 234.424316,218.908005 
	C228.534805,206.606323 224.409103,193.783676 225.114670,179.980347 
	C225.348633,175.403366 226.618607,170.689819 228.359253,166.424042 
	C230.934021,160.114014 236.372589,159.013702 242.373672,162.773331 
	C249.000076,166.924744 255.523956,169.657013 263.805359,166.217926 
	C271.445129,163.045288 276.148376,168.007217 279.156006,175.441681 
	C281.821411,169.814819 284.867889,165.638672 291.173798,167.070206 
	C293.461304,167.589493 295.494476,169.137772 297.739777,169.951416 
	C304.769043,172.498642 311.658264,170.251785 318.384888,168.673676 
	C323.681427,167.431091 328.765472,165.129990 333.804840,162.974014 
	C346.583038,157.507172 349.594025,162.723099 351.918884,173.030533 
	C355.418671,188.547287 350.663025,202.965103 344.497742,216.918625 
	C341.429932,223.861725 337.556702,230.448929 334.082520,237.559082 
z"/>
<path fill="#EFB745" opacity="1.000000" stroke="none" 
	d="
M319.890778,343.549866 
	C316.371887,352.012909 310.268616,356.969849 301.873505,359.181610 
	C299.227264,359.878815 297.522675,360.917816 296.172913,363.805878 
	C295.089691,366.123657 291.740479,368.150452 289.047577,368.757812 
	C285.501892,369.557495 282.536285,367.195038 281.522461,363.624146 
	C280.744507,360.884003 279.218872,360.377777 276.672699,359.762329 
	C267.971710,357.659241 260.307312,353.929504 257.606293,344.265625 
	C256.258148,339.442230 258.083282,334.713959 261.908020,333.295258 
	C266.520203,331.584442 270.352142,333.500580 272.734619,338.593109 
	C273.350891,339.910339 273.997040,341.462769 275.099945,342.237061 
	C276.340973,343.108368 278.177490,343.665070 279.626068,343.457733 
	C280.249847,343.368439 280.690460,341.040344 280.952179,339.678925 
	C281.168274,338.554993 280.866058,337.338715 281.022614,336.194733 
	C281.710175,331.171082 280.703033,328.319702 274.670135,327.097351 
	C264.990601,325.136108 257.170166,314.280792 257.017517,304.719788 
	C256.876831,295.908417 263.780579,287.051117 273.466644,283.689819 
	C277.286530,282.364166 281.275452,281.839081 282.631195,276.639587 
	C283.071747,274.950104 287.320312,273.062836 289.557220,273.352264 
	C292.016510,273.670441 295.028381,275.936981 296.218964,278.189941 
	C297.558350,280.724396 298.733490,281.705353 301.529694,282.256409 
	C310.513062,284.026764 317.704346,288.350800 320.426300,297.864532 
	C321.795197,302.649200 319.820557,307.414062 315.964417,308.750793 
	C311.118134,310.430786 307.231476,308.233704 304.909485,302.974823 
	C304.178436,301.319153 302.700958,299.696960 301.142456,298.770447 
	C298.659363,297.294373 297.009277,298.262573 297.015991,301.352142 
	C297.019958,303.183197 297.213867,305.043732 296.959930,306.839722 
	C296.292938,311.557129 297.724213,313.660675 302.902618,314.711823 
	C313.961060,316.956573 324.368958,331.434387 319.890778,343.549866 
M273.239929,303.888580 
	C272.957489,308.965942 276.077362,310.652130 280.503784,311.497437 
	C280.503784,306.951691 280.503784,302.812347 280.503784,298.673004 
	C280.103973,298.410278 279.704163,298.147522 279.304382,297.884796 
	C277.364624,299.646820 275.424896,301.408875 273.239929,303.888580 
M299.653168,343.132904 
	C302.781677,341.849731 305.388885,339.956207 304.734222,336.168701 
	C304.079956,332.383392 301.206787,330.966858 297.027954,330.578430 
	C297.027954,334.325867 296.915527,337.774841 297.115479,341.205566 
	C297.159515,341.961761 298.311005,342.653381 299.653168,343.132904 
z"/>
<path fill="#EFB846" opacity="1.000000" stroke="none" 
	d="
M284.042145,238.043884 
	C279.955231,245.853745 275.980652,253.712570 271.652954,261.371857 
	C269.548584,265.096252 264.831360,266.008423 261.127014,263.997833 
	C257.432373,261.992523 255.855347,257.815704 257.788208,253.691208 
	C260.184479,248.577835 263.029022,243.674545 265.809448,238.364807 
	C265.938965,238.049118 266.011963,237.980560 266.505554,237.973053 
	C272.647003,237.958710 278.294891,237.951859 283.942749,237.944992 
	C283.942749,237.944992 284.009186,238.010742 284.042145,238.043884 
z"/>
<path fill="#EFB746" opacity="1.000000" stroke="none" 
	d="
M312.028320,238.018311 
	C314.483215,242.601273 316.907562,247.147644 319.319183,251.700745 
	C322.173706,257.089996 321.115997,261.898743 316.596039,264.136749 
	C312.173798,266.326385 307.983734,264.587646 305.183075,259.387115 
	C301.481659,252.513977 297.788696,245.636307 294.009644,238.417557 
	C293.927185,238.074539 293.993317,238.008377 294.487335,237.993439 
	C300.628174,237.957428 306.275024,237.936356 311.921844,237.915283 
	C311.921844,237.915298 311.992157,237.984680 312.028320,238.018311 
z"/>
<path fill="#E29F30" opacity="1.000000" stroke="none" 
	d="
M312.004700,237.570343 
	C306.275024,237.936356 300.628174,237.957428 294.520630,237.960602 
	C298.096161,229.553329 301.967834,221.078873 306.241608,212.812317 
	C308.223877,208.978058 312.903900,207.979218 316.683838,209.900375 
	C320.592926,211.887161 322.116425,216.180923 320.125305,220.585083 
	C317.588501,226.196274 314.779358,231.684296 312.004700,237.570343 
z"/>
<path fill="#E29F30" opacity="1.000000" stroke="none" 
	d="
M283.899902,237.593475 
	C278.294891,237.951859 272.647003,237.958710 266.541077,237.937775 
	C263.506409,232.504013 260.910156,227.107330 258.358887,221.689453 
	C255.888733,216.443832 257.157074,211.821548 261.579041,209.769623 
	C265.893677,207.767517 270.170105,209.443008 272.650696,214.370483 
	C276.467896,221.953156 280.129425,229.614182 283.899902,237.593475 
z"/>
<path fill="#FCD062" opacity="1.000000" stroke="none" 
	d="
M273.362549,303.529724 
	C275.424896,301.408875 277.364624,299.646820 279.304382,297.884796 
	C279.704163,298.147522 280.103973,298.410278 280.503784,298.673004 
	C280.503784,302.812347 280.503784,306.951691 280.503784,311.497437 
	C276.077362,310.652130 272.957489,308.965942 273.362549,303.529724 
z"/>
<path fill="#FBD062" opacity="1.000000" stroke="none" 
	d="
M299.302856,343.253845 
	C298.311005,342.653381 297.159515,341.961761 297.115479,341.205566 
	C296.915527,337.774841 297.027954,334.325867 297.027954,330.578430 
	C301.206787,330.966858 304.079956,332.383392 304.734222,336.168701 
	C305.388885,339.956207 302.781677,341.849731 299.302856,343.253845 
z"/>
</svg>